<svg width="20" height="20" xmlns="http://www.w3.org/2000/svg" fill="none">

 <g>
  <title>Layer 1</title>
  <path id="svg_1" fill="#0000bf" d="m10,0c-2.71847,0 -3.05726,0.01313 -4.12114,0.05813c-1.06826,0.05251 -1.79085,0.21816 -2.42843,0.46569c-0.66729,0.25192 -1.27162,0.64634 -1.77085,1.15576c-0.51084,0.49807 -0.90548,1.10273 -1.15576,1.77085c-0.24753,0.63758 -0.41318,1.36017 -0.46569,2.42843c-0.04813,1.06451 -0.05813,1.40268 -0.05813,4.12114c0,2.7185 0.01313,3.0573 0.05813,4.1211c0.05251,1.0652 0.21816,1.7909 0.46569,2.4285c0.25192,0.6673 0.64634,1.2716 1.15576,1.7708c0.49807,0.5109 1.10273,0.9055 1.77085,1.1558c0.63758,0.2444 1.3633,0.4132 2.42843,0.4657c1.06451,0.0481 1.40267,0.0581 4.12114,0.0581c2.7185,0 3.0573,-0.0131 4.1211,-0.0581c1.0652,-0.0525 1.7909,-0.2219 2.4285,-0.4657c0.6673,-0.2519 1.2716,-0.6464 1.7708,-1.1558c0.5115,-0.4975 0.9063,-1.1023 1.1558,-1.7708c0.2444,-0.6376 0.4132,-1.3633 0.4657,-2.4285c0.0481,-1.0645 0.0581,-1.4026 0.0581,-4.1211c0,-2.71846 -0.0131,-3.05726 -0.0581,-4.12114c-0.0525,-1.06513 -0.2219,-1.7946 -0.4657,-2.42843c-0.2519,-0.66729 -0.6464,-1.27162 -1.1558,-1.77085c-0.4975,-0.5115 -1.1023,-0.90625 -1.7708,-1.15576c-0.6376,-0.24753 -1.3633,-0.41318 -2.4285,-0.46569c-1.0645,-0.04813 -1.4026,-0.05813 -4.1211,-0.05813zm0,1.80023c2.6697,0 2.9885,0.01312 4.0436,0.05813c0.9733,0.04563 1.5033,0.20815 1.8553,0.34567c0.435,0.16059 0.8288,0.4162 1.1526,0.74821c0.3315,0.32244 0.5861,0.71531 0.7451,1.14952c0.1375,0.35192 0.3,0.88199 0.3457,1.85523c0.045,1.05514 0.0581,1.37455 0.0581,4.04361c0,2.6691 -0.0131,2.9885 -0.0619,4.0437c-0.0525,0.9732 -0.215,1.5033 -0.3519,1.8552c-0.1894,0.4694 -0.4007,0.7976 -0.7495,1.1526c-0.3249,0.33 -0.7184,0.5843 -1.1526,0.7451c-0.3476,0.1375 -0.8851,0.3001 -1.8621,0.3457c-1.0608,0.045 -1.3733,0.0581 -4.0499,0.0581c-2.67659,0 -2.9885,-0.0131 -4.05051,-0.0619c-0.97325,-0.0525 -1.51019,-0.215 -1.86211,-0.3519c-0.47506,-0.1894 -0.80072,-0.4007 -1.14952,-0.7494c-0.35192,-0.352 -0.57569,-0.687 -0.74822,-1.1527c-0.14001,-0.3475 -0.30003,-0.8851 -0.35191,-1.8621c-0.03563,-1.0483 -0.05251,-1.3733 -0.05251,-4.03738c0,-2.66283 0.01688,-2.9885 0.05251,-4.04988c0.05188,-0.97699 0.2119,-1.51331 0.35191,-1.86211c0.17253,-0.47568 0.39693,-0.80072 0.74822,-1.15264c0.34817,-0.34817 0.67446,-0.5732 1.14952,-0.74947c0.35192,-0.13689 0.87574,-0.29941 1.85273,-0.34817c1.06076,-0.03813 1.3733,-0.05188 4.04613,-0.05188l0.04126,0.02876zm0,3.06725c-0.67425,-0.00024 -1.34193,0.13238 -1.9649,0.39029c-0.62297,0.2579 -1.18901,0.63605 -1.66577,1.11281c-0.47676,0.47676 -0.85491,1.0428 -1.11281,1.66577c-0.25791,0.62297 -0.39053,1.29066 -0.39029,1.96495c-0.00024,0.6742 0.13238,1.3419 0.39029,1.9648c0.2579,0.623 0.63605,1.1891 1.11281,1.6658c0.47676,0.4768 1.0428,0.8549 1.66577,1.1128c0.62297,0.2579 1.29065,0.3906 1.9649,0.3903c0.6742,0.0003 1.3419,-0.1324 1.9649,-0.3903c0.623,-0.2579 1.189,-0.636 1.6658,-1.1128c0.4767,-0.4767 0.8549,-1.0428 1.1128,-1.6658c0.2579,-0.6229 0.3905,-1.2906 0.3903,-1.9648c0.0002,-0.67429 -0.1324,-1.34198 -0.3903,-1.96495c-0.2579,-0.62297 -0.6361,-1.18901 -1.1128,-1.66577c-0.4768,-0.47676 -1.0428,-0.85491 -1.6658,-1.11281c-0.623,-0.25791 -1.2907,-0.39053 -1.9649,-0.39029zm0,8.46732c-1.84273,0 -3.33354,-1.4908 -3.33354,-3.3335c0,-1.84278 1.49081,-3.33359 3.33354,-3.33359c1.8427,0 3.3335,1.49081 3.3335,3.33359c0,1.8427 -1.4908,3.3335 -3.3335,3.3335zm6.5408,-8.67234c-0.0003,0.31858 -0.1271,0.624 -0.3525,0.84915c-0.2254,0.22515 -0.5309,0.35162 -0.8495,0.35162c-0.1575,0 -0.3135,-0.03102 -0.459,-0.09131c-0.1456,-0.06028 -0.2778,-0.14863 -0.3892,-0.26002c-0.1114,-0.11139 -0.1997,-0.24362 -0.26,-0.38915c-0.0603,-0.14554 -0.0913,-0.30152 -0.0913,-0.45904c0,-0.15753 0.031,-0.31351 0.0913,-0.45904c0.0603,-0.14553 0.1486,-0.27777 0.26,-0.38915c0.1114,-0.11139 0.2436,-0.19975 0.3892,-0.26003c0.1455,-0.06028 0.3015,-0.09131 0.459,-0.09131c0.6607,0 1.202,0.53757 1.202,1.19828z"/>
 </g>
</svg>