<svg width="21" height="20" xmlns="http://www.w3.org/2000/svg" fill="none">

 <g>
  <title>Layer 1</title>
  <path id="svg_1" fill="#0000bf" d="m2.40783,4.81567c1.32981,0 2.40784,-1.07803 2.40784,-2.40784c0,-1.32981 -1.07803,-2.40783 -2.40784,-2.40783c-1.32981,0 -2.40783,1.07802 -2.40783,2.40783c0,1.32981 1.07802,2.40784 2.40783,2.40784z"/>
  <path id="svg_2" fill="#0000bf" d="m7.08924,6.64026l0,13.35864l4.14766,0l0,-6.6061c0,-1.7432 0.328,-3.43131 2.4893,-3.43131c2.1316,0 2.158,1.99291 2.158,3.54131l0,6.4972l4.1499,0l0,-7.3258c0,-3.59859 -0.7747,-6.36408 -4.9807,-6.36408c-2.0194,0 -3.373,1.10818 -3.9265,2.15693l-0.0561,0l0,-1.82679l-3.98156,0zm-6.7591,0l4.15428,0l0,13.35864l-4.15428,0l0,-13.35864z"/>
 </g>
</svg>