<svg width="24" height="24" xmlns="http://www.w3.org/2000/svg" fill="none">

 <g>
  <title>Layer 1</title>
  <path id="svg_1" fill="#0000bf" d="m10.9,2.09998c-4.59999,0.5 -8.29999,4.2 -8.79999,8.70002c-0.5,4.7 2.2,8.9 6.3,10.5c0.3,0.1 0.6,-0.1 0.6,-0.5l0,-1.6c0,0 -0.4,0.1 -0.9,0.1c-1.4,0 -2,-1.2 -2.1,-1.9c-0.1,-0.4 -0.3,-0.7 -0.6,-1c-0.3,-0.1 -0.4,-0.1 -0.4,-0.2c0,-0.2 0.3,-0.2 0.4,-0.2c0.6,0 1.1,0.7 1.3,1c0.5,0.8 1.1,1 1.4,1c0.4,0 0.7,-0.1 0.9,-0.2c0.1,-0.7 0.4,-1.4 0.99999,-1.8c-2.29999,-0.5 -3.99999,-1.8 -3.99999,-4c0,-1.1 0.5,-2.20002 1.2,-3.00002c-0.1,-0.2 -0.2,-0.7 -0.2,-1.4c0,-0.4 0,-1 0.3,-1.6c0,0 1.4,0 2.79999,1.3c0.5,-0.2 1.2,-0.3 1.9,-0.3c0.7,0 1.4,0.1 2,0.3c1.3,-1.3 2.8,-1.3 2.8,-1.3c0.2,0.6 0.2,1.2 0.2,1.6c0,0.8 -0.1,1.2 -0.2,1.4c0.7,0.8 1.2,1.80002 1.2,3.00002c0,2.2 -1.7,3.5 -4,4c0.6,0.5 1,1.4 1,2.3l0,2.6c0,0.3 0.3,0.6 0.7,0.5c3.7,-1.5 6.3,-5.1 6.3,-9.3c0,-6.00002 -5.1,-10.70002 -11.1,-10.00002z"/>
 </g>
</svg>